<svg xmlns="http://www.w3.org/2000/svg" xmlns:svg="http://www.w3.org/2000/svg" id="svg3680" width="340.369" height="226.622" version="1.1" viewBox="0 0 340.369 226.622" xml:space="preserve"><metadata id="metadata3686"/><defs id="defs3684"><clipPath id="clipPath3700" clipPathUnits="userSpaceOnUse"><path id="path3698" d="M 0,271 H 474 V 0 H 0 Z"/></clipPath></defs><g id="g3688" transform="matrix(1.3333333,0,0,-1.3333333,-156.1236,344.56039)"><g id="g3694"><g id="g3702" transform="translate(270.4785,165.3169)" style="fill:#fff;fill-opacity:1"><path id="path3704" style="fill:#fff;fill-opacity:1;fill-rule:nonzero;stroke:none" d="m 0,0 c 0,-7.729 -6.267,-13.997 -14,-13.997 -7.732,0 -14.001,6.268 -14.001,13.997 0,7.733 6.269,14.002 14.001,14.002 C -6.267,14.002 0,7.733 0,0"/></g><g id="g3706" transform="translate(217.541,123.3291)" style="fill:#fff;fill-opacity:1"><path id="path3708" style="fill:#fff;fill-opacity:1;fill-rule:nonzero;stroke:none" d="m 0,0 c 0,-7.729 -6.267,-13.994 -14,-13.994 -7.732,0 -14.001,6.265 -14.001,13.994 0,7.725 6.269,13.991 14.001,13.991 C -6.267,13.991 0,7.725 0,0"/></g><g id="g3710" transform="translate(293.4795,138.3164)" style="fill:#fff;fill-opacity:1"><path id="path3712" style="fill:#fff;fill-opacity:1;fill-rule:nonzero;stroke:none" d="m 0,0 c 0,-7.725 -6.267,-13.982 -14,-13.982 -7.732,0 -14.001,6.257 -14.001,13.982 0,7.734 6.269,14.003 14.001,14.003 C -6.267,14.003 0,7.734 0,0"/></g><g id="g3714" transform="translate(262.4873,130.3223)" style="fill:#fff;fill-opacity:1"><path id="path3716" style="fill:#fff;fill-opacity:1;fill-rule:nonzero;stroke:none" d="m 0,0 c 0,-5.85 -4.752,-10.603 -10.614,-10.603 -5.858,0 -10.609,4.753 -10.609,10.603 0,5.859 4.751,10.611 10.609,10.611 C -4.752,10.611 0,5.859 0,0"/></g><g id="g3718" transform="translate(303.7871,162.2817)" style="fill:#fff;fill-opacity:1"><path id="path3720" style="fill:#fff;fill-opacity:1;fill-rule:nonzero;stroke:none" d="m 0,0 c 0,-5.859 -4.752,-10.611 -10.614,-10.611 -5.862,0 -10.614,4.752 -10.614,10.611 0,5.863 4.752,10.616 10.614,10.616 C -4.752,10.616 0,5.863 0,0"/></g><g id="g3722" transform="translate(212.1562,147.3887)" style="fill:#fff;fill-opacity:1"><path id="path3724" style="fill:#fff;fill-opacity:1;fill-rule:nonzero;stroke:none" d="m 0,0 c 0,-3.496 -2.835,-6.332 -6.333,-6.332 -3.498,0 -6.334,2.836 -6.334,6.332 0,3.499 2.836,6.334 6.334,6.334 C -2.835,6.334 0,3.499 0,0"/></g><g id="g3726" transform="translate(240.0127,132.0249)" style="fill:#fff;fill-opacity:1"><path id="path3728" style="fill:#fff;fill-opacity:1;fill-rule:nonzero;stroke:none" d="m 0,0 c 0,-3.489 -2.834,-6.321 -6.332,-6.321 -3.498,0 -6.334,2.832 -6.334,6.321 0,3.497 2.836,6.333 6.334,6.333 C -2.834,6.333 0,3.497 0,0"/></g><g id="g3730" transform="translate(306.4268,144.3188)" style="fill:#fff;fill-opacity:1"><path id="path3732" style="fill:#fff;fill-opacity:1;fill-rule:nonzero;stroke:none" d="m 0,0 c 0,-3.496 -2.835,-6.332 -6.333,-6.332 -3.498,0 -6.333,2.836 -6.333,6.332 0,3.499 2.835,6.334 6.333,6.334 C -2.835,6.334 0,3.499 0,0"/></g><g id="g3734" transform="translate(228.6377,112.7861)" style="fill:#fff;fill-opacity:1"><path id="path3736" style="fill:#fff;fill-opacity:1;fill-rule:nonzero;stroke:none" d="m 0,0 c 0,-3.496 -2.836,-6.332 -6.334,-6.332 -3.498,0 -6.333,2.836 -6.333,6.332 0,3.498 2.835,6.334 6.333,6.334 C -2.836,6.334 0,3.498 0,0"/></g><g id="g3738" transform="translate(228.2354,124.5215)" style="fill:#fff;fill-opacity:1"><path id="path3740" style="fill:#fff;fill-opacity:1;fill-rule:nonzero;stroke:none" d="m 0,0 c 0,-2.101 -1.706,-3.806 -3.809,-3.806 -2.103,0 -3.808,1.705 -3.808,3.806 0,2.101 1.705,3.805 3.808,3.805 C -1.706,3.805 0,2.101 0,0"/></g><g id="g3742" transform="translate(278.2354,156.7061)" style="fill:#fff;fill-opacity:1"><path id="path3744" style="fill:#fff;fill-opacity:1;fill-rule:nonzero;stroke:none" d="m 0,0 c 0,-2.104 -1.706,-3.809 -3.809,-3.809 -2.103,0 -3.808,1.705 -3.808,3.809 0,2.103 1.705,3.809 3.808,3.809 C -1.706,3.809 0,2.103 0,0"/></g><g id="g3746" transform="translate(239.9023,164.7754)" style="fill:#fff;fill-opacity:1"><path id="path3748" style="fill:#fff;fill-opacity:1;fill-rule:nonzero;stroke:none" d="m 0,0 c 0,-2.103 -1.707,-3.808 -3.809,-3.808 -2.104,0 -3.809,1.705 -3.809,3.808 0,2.104 1.705,3.809 3.809,3.809 C -1.707,3.809 0,2.104 0,0"/></g><g id="g3750" transform="translate(238.5674,111.8584)" style="fill:#fff;fill-opacity:1"><path id="path3752" style="fill:#fff;fill-opacity:1;fill-rule:nonzero;stroke:none" d="m 0,0 c 0,-2.104 -1.705,-3.809 -3.809,-3.809 -2.103,0 -3.807,1.705 -3.807,3.809 0,2.104 1.704,3.809 3.807,3.809 C -1.705,3.809 0,2.104 0,0"/></g><g id="g3754" transform="translate(319.5498,159.0034)" style="fill:#fff;fill-opacity:1"><path id="path3756" style="fill:#fff;fill-opacity:1;fill-rule:nonzero;stroke:none" d="m 0,0 c 0,-2.104 -1.706,-3.809 -3.809,-3.809 -2.103,0 -3.807,1.705 -3.807,3.809 0,2.104 1.704,3.809 3.807,3.809 C -1.706,3.809 0,2.104 0,0"/></g><g id="g3758" transform="translate(265.0596,144.313)" style="fill:#fff;fill-opacity:1"><path id="path3760" style="fill:#fff;fill-opacity:1;fill-rule:nonzero;stroke:none" d="m 0,0 c 0,-2.103 -1.707,-3.808 -3.809,-3.808 -2.103,0 -3.808,1.705 -3.808,3.808 0,2.104 1.705,3.809 3.808,3.809 C -1.707,3.809 0,2.104 0,0"/></g><g id="g3762" transform="translate(220.2705,138.8965)" style="fill:#fff;fill-opacity:1"><path id="path3764" style="fill:#fff;fill-opacity:1;fill-rule:nonzero;stroke:none" d="m 0,0 c 0,-2.103 -1.707,-3.808 -3.809,-3.808 -2.103,0 -3.808,1.705 -3.808,3.808 0,2.104 1.705,3.809 3.808,3.809 C -1.707,3.809 0,2.104 0,0"/></g><g id="g3766" transform="translate(281.3672,167.6523)" style="fill:#fff;fill-opacity:1"><path id="path3768" style="fill:#fff;fill-opacity:1;fill-rule:nonzero;stroke:none" d="m 0,0 c 0,-2.103 -1.706,-3.808 -3.809,-3.808 -2.103,0 -3.807,1.705 -3.807,3.808 0,2.104 1.704,3.809 3.807,3.809 C -1.706,3.809 0,2.104 0,0"/></g><g id="g3774" transform="translate(252.2354,146.7056)" style="fill:#fff;fill-opacity:1"><path id="path3776" style="fill:#fff;fill-opacity:1;fill-rule:nonzero;stroke:none" d="m 0,0 c 0,-2.103 -1.706,-3.808 -3.809,-3.808 -2.103,0 -3.808,1.705 -3.808,3.808 0,2.104 1.705,3.809 3.808,3.809 C -1.706,3.809 0,2.104 0,0"/></g><g id="g3778" transform="translate(311.2354,153.7056)" style="fill:#fff;fill-opacity:1"><path id="path3780" style="fill:#fff;fill-opacity:1;fill-rule:nonzero;stroke:none" d="m 0,0 c 0,-2.103 -1.706,-3.808 -3.809,-3.808 -2.103,0 -3.808,1.705 -3.808,3.808 0,2.104 1.705,3.809 3.808,3.809 C -1.706,3.809 0,2.104 0,0"/></g><g id="g3782" transform="translate(237.958,151.3179)" style="fill:#fff;fill-opacity:1"><path id="path3784" style="fill:#fff;fill-opacity:1;fill-rule:nonzero;stroke:none" d="m 0,0 c 0,-5.858 -4.752,-10.612 -10.614,-10.612 -5.858,0 -10.609,4.754 -10.609,10.612 0,5.863 4.751,10.616 10.609,10.616 C -4.752,10.616 0,5.863 0,0"/></g><g id="g3786" transform="translate(180.4268,145.812)" style="fill:#fff;fill-opacity:1"><path id="path3788" style="fill:#fff;fill-opacity:1;fill-rule:nonzero;stroke:none" d="m 0,0 c 0,-3.497 -2.835,-6.333 -6.333,-6.333 -3.498,0 -6.333,2.836 -6.333,6.333 0,3.498 2.835,6.334 6.333,6.334 C -2.835,6.334 0,3.498 0,0"/></g><g id="g3790" transform="translate(219.0283,174.7998)" style="fill:#fff;fill-opacity:1"><path id="path3792" style="fill:#fff;fill-opacity:1;fill-rule:nonzero;stroke:none" d="m 0,0 c 0,-7.729 -6.268,-13.996 -14,-13.996 -7.732,0 -14.002,6.267 -14.002,13.996 0,7.734 6.27,14.003 14.002,14.003 C -6.268,14.003 0,7.734 0,0"/></g><g id="g3794" transform="translate(163.0937,180.9414)" style="fill:#fff;fill-opacity:1"><path id="path3796" style="fill:#fff;fill-opacity:1;fill-rule:nonzero;stroke:none" d="m 0,0 c 0,-7.729 -6.267,-13.996 -14,-13.996 -7.732,0 -14.001,6.267 -14.001,13.996 0,7.734 6.269,14.003 14.001,14.003 C -6.267,14.003 0,7.734 0,0"/></g><g id="g3798" transform="translate(219.7939,213.999)" style="fill:#fff;fill-opacity:1"><path id="path3800" style="fill:#fff;fill-opacity:1;fill-rule:nonzero;stroke:none" d="m 0,0 c 0,-7.729 -6.267,-13.996 -14,-13.996 -7.732,0 -14.001,6.267 -14.001,13.996 0,7.734 6.269,14.003 14.001,14.003 C -6.267,14.003 0,7.734 0,0"/></g><g id="g3802" transform="translate(247.3955,222.7163)" style="fill:#fff;fill-opacity:1"><path id="path3804" style="fill:#fff;fill-opacity:1;fill-rule:nonzero;stroke:none" d="m 0,0 c 0,-5.859 -4.752,-10.611 -10.613,-10.611 -5.862,0 -10.614,4.752 -10.614,10.611 0,5.863 4.752,10.615 10.614,10.615 C -4.752,10.615 0,5.863 0,0"/></g><g id="g3806" transform="translate(181.041,164.7744)" style="fill:#fff;fill-opacity:1"><path id="path3808" style="fill:#fff;fill-opacity:1;fill-rule:nonzero;stroke:none" d="m 0,0 c 0,-5.859 -4.752,-10.611 -10.614,-10.611 -5.862,0 -10.614,4.752 -10.614,10.611 0,5.863 4.752,10.615 10.614,10.615 C -4.752,10.615 0,5.863 0,0"/></g><g id="g3810" transform="translate(176.708,207.5557)" style="fill:#fff;fill-opacity:1"><path id="path3812" style="fill:#fff;fill-opacity:1;fill-rule:nonzero;stroke:none" d="m 0,0 c 0,-5.859 -4.752,-10.611 -10.615,-10.611 -5.862,0 -10.614,4.752 -10.614,10.611 0,5.863 4.752,10.615 10.614,10.615 C -4.752,10.615 0,5.863 0,0"/></g><g id="g3814" transform="translate(157.4795,150.1606)" style="fill:#fff;fill-opacity:1"><path id="path3816" style="fill:#fff;fill-opacity:1;fill-rule:nonzero;stroke:none" d="m 0,0 c 0,-5.859 -4.752,-10.611 -10.613,-10.611 -5.862,0 -10.614,4.752 -10.614,10.611 0,5.863 4.752,10.615 10.614,10.615 C -4.752,10.615 0,5.863 0,0"/></g><g id="g3818" transform="translate(182.041,185.3882)" style="fill:#fff;fill-opacity:1"><path id="path3820" style="fill:#fff;fill-opacity:1;fill-rule:nonzero;stroke:none" d="m 0,0 c 0,-3.496 -2.835,-6.332 -6.333,-6.332 -3.498,0 -6.334,2.836 -6.334,6.332 0,3.499 2.836,6.334 6.334,6.334 C -2.835,6.334 0,3.499 0,0"/></g><g id="g3822" transform="translate(194.584,157.9946)" style="fill:#fff;fill-opacity:1"><path id="path3824" style="fill:#fff;fill-opacity:1;fill-rule:nonzero;stroke:none" d="m 0,0 c 0,-3.496 -2.835,-6.332 -6.333,-6.332 -3.498,0 -6.333,2.836 -6.333,6.332 0,3.499 2.835,6.334 6.333,6.334 C -2.835,6.334 0,3.499 0,0"/></g><g id="g3826" transform="translate(191.041,222.7173)" style="fill:#fff;fill-opacity:1"><path id="path3828" style="fill:#fff;fill-opacity:1;fill-rule:nonzero;stroke:none" d="m 0,0 c 0,-3.496 -2.835,-6.332 -6.333,-6.332 -3.498,0 -6.334,2.836 -6.334,6.332 0,3.499 2.836,6.334 6.334,6.334 C -2.835,6.334 0,3.499 0,0"/></g><g id="g3830" transform="translate(204.1084,193.9229)" style="fill:#fff;fill-opacity:1"><path id="path3832" style="fill:#fff;fill-opacity:1;fill-rule:nonzero;stroke:none" d="m 0,0 c 0,-2.103 -1.706,-3.808 -3.809,-3.808 -2.103,0 -3.808,1.705 -3.808,3.808 0,2.104 1.705,3.809 3.808,3.809 C -1.706,3.809 0,2.104 0,0"/></g><g id="g3834" transform="translate(223.834,235.9478)" style="fill:#fff;fill-opacity:1"><path id="path3836" style="fill:#fff;fill-opacity:1;fill-rule:nonzero;stroke:none" d="m 0,0 c 0,-2.103 -1.706,-3.808 -3.809,-3.808 -2.103,0 -3.807,1.705 -3.807,3.808 0,2.104 1.704,3.809 3.807,3.809 C -1.706,3.809 0,2.104 0,0"/></g><g id="g3838" transform="translate(255.8447,236.6113)" style="fill:#fff;fill-opacity:1"><path id="path3840" style="fill:#fff;fill-opacity:1;fill-rule:nonzero;stroke:none" d="m 0,0 c 0,-2.103 -1.706,-3.808 -3.809,-3.808 -2.103,0 -3.808,1.705 -3.808,3.808 0,2.104 1.705,3.809 3.808,3.809 C -1.706,3.809 0,2.104 0,0"/></g><g id="g3842" transform="translate(155.9014,131.3208)" style="fill:#fff;fill-opacity:1"><path id="path3844" style="fill:#fff;fill-opacity:1;fill-rule:nonzero;stroke:none" d="m 0,0 c 0,-2.099 -1.705,-3.801 -3.809,-3.801 -2.103,0 -3.807,1.702 -3.807,3.801 0,2.102 1.704,3.807 3.807,3.807 C -1.705,3.807 0,2.102 0,0"/></g><g id="g3846" transform="translate(186.377,128.5161)" style="fill:#fff;fill-opacity:1"><path id="path3848" style="fill:#fff;fill-opacity:1;fill-rule:nonzero;stroke:none" d="m 0,0 c 0,-2.099 -1.706,-3.801 -3.809,-3.801 -2.103,0 -3.807,1.702 -3.807,3.801 0,2.101 1.704,3.805 3.807,3.805 C -1.706,3.805 0,2.101 0,0"/></g><g id="g3850" transform="translate(233.0928,205.7705)" style="fill:#fff;fill-opacity:1"><path id="path3852" style="fill:#fff;fill-opacity:1;fill-rule:nonzero;stroke:none" d="m 0,0 c 0,-3.496 -2.835,-6.332 -6.333,-6.332 -3.498,0 -6.333,2.836 -6.333,6.332 0,3.499 2.835,6.334 6.333,6.334 C -2.835,6.334 0,3.499 0,0"/></g><g id="g3854" transform="translate(196.6279,145.7632)" style="fill:#fff;fill-opacity:1"><path id="path3856" style="fill:#fff;fill-opacity:1;fill-rule:nonzero;stroke:none" d="m 0,0 c 0,-2.103 -1.707,-3.808 -3.809,-3.808 -2.103,0 -3.808,1.705 -3.808,3.808 0,2.104 1.705,3.809 3.808,3.809 C -1.707,3.809 0,2.104 0,0"/></g><g id="g3858" transform="translate(192.041,203.7705)" style="fill:#fff;fill-opacity:1"><path id="path3860" style="fill:#fff;fill-opacity:1;fill-rule:nonzero;stroke:none" d="m 0,0 c 0,-3.496 -2.835,-6.332 -6.333,-6.332 -3.498,0 -6.334,2.836 -6.334,6.332 0,3.499 2.836,6.334 6.334,6.334 C -2.835,6.334 0,3.499 0,0"/></g><g id="g3862" transform="translate(172.4272,131.3208)" style="fill:#fff;fill-opacity:1"><path id="path3864" style="fill:#fff;fill-opacity:1;fill-rule:nonzero;stroke:none" d="m 0,0 c 0,-3.491 -2.835,-6.323 -6.333,-6.323 -3.498,0 -6.334,2.832 -6.334,6.323 0,3.496 2.836,6.332 6.334,6.332 C -2.835,6.332 0,3.496 0,0"/></g><g id="g3866" transform="translate(327.8945,176.7759)" style="fill:#fff;fill-opacity:1"><path id="path3868" style="fill:#fff;fill-opacity:1;fill-rule:nonzero;stroke:none" d="m 0,0 c 0,-3.496 -2.836,-6.332 -6.334,-6.332 -3.497,0 -6.333,2.836 -6.333,6.332 0,3.499 2.836,6.334 6.333,6.334 C -2.836,6.334 0,3.499 0,0"/></g><g id="g3870" transform="translate(328.3701,134.2197)" style="fill:#fff;fill-opacity:1"><path id="path3872" style="fill:#fff;fill-opacity:1;fill-rule:nonzero;stroke:none" d="m 0,0 c 0,-2.101 -1.707,-3.804 -3.809,-3.804 -2.103,0 -3.808,1.703 -3.808,3.804 0,2.104 1.705,3.809 3.808,3.809 C -1.707,3.809 0,2.104 0,0"/></g><g id="g3874" transform="translate(313.3701,134.3184)" style="fill:#fff;fill-opacity:1"><path id="path3876" style="fill:#fff;fill-opacity:1;fill-rule:nonzero;stroke:none" d="m 0,0 c 0,-2.1 -1.706,-3.803 -3.809,-3.803 -2.103,0 -3.808,1.703 -3.808,3.803 0,2.104 1.705,3.809 3.808,3.809 C -1.706,3.809 0,2.104 0,0"/></g><g id="g3878" transform="translate(354.3691,155.9951)" style="fill:#fff;fill-opacity:1"><path id="path3880" style="fill:#fff;fill-opacity:1;fill-rule:nonzero;stroke:none" d="m 0,0 c 0,-2.103 -1.706,-3.808 -3.809,-3.808 -2.103,0 -3.807,1.705 -3.807,3.808 0,2.104 1.704,3.809 3.807,3.809 C -1.706,3.809 0,2.104 0,0"/></g><g id="g3882" transform="translate(341.9834,185.561)" style="fill:#fff;fill-opacity:1"><path id="path3884" style="fill:#fff;fill-opacity:1;fill-rule:nonzero;stroke:none" d="m 0,0 c 0,-2.103 -1.707,-3.808 -3.809,-3.808 -2.103,0 -3.808,1.705 -3.808,3.808 0,2.104 1.705,3.809 3.808,3.809 C -1.707,3.809 0,2.104 0,0"/></g><g id="g3886" transform="translate(349.3154,141.6274)" style="fill:#fff;fill-opacity:1"><path id="path3888" style="fill:#fff;fill-opacity:1;fill-rule:nonzero;stroke:none" d="m 0,0 c 0,-3.496 -2.834,-6.332 -6.332,-6.332 -3.498,0 -6.334,2.836 -6.334,6.332 0,3.499 2.836,6.334 6.334,6.334 C -2.834,6.334 0,3.499 0,0"/></g><g id="g3890" transform="translate(350.1221,169.8418)" style="fill:#fff;fill-opacity:1"><path id="path3892" style="fill:#fff;fill-opacity:1;fill-rule:nonzero;stroke:none" d="m 0,0 c 0,-5.859 -4.752,-10.611 -10.614,-10.611 -5.862,0 -10.614,4.752 -10.614,10.611 0,5.863 4.752,10.615 10.614,10.615 C -4.752,10.615 0,5.863 0,0"/></g><g id="g3894" transform="translate(334.8945,148.9609)" style="fill:#fff;fill-opacity:1"><path id="path3896" style="fill:#fff;fill-opacity:1;fill-rule:nonzero;stroke:none" d="m 0,0 c 0,-3.496 -2.835,-6.332 -6.333,-6.332 -3.498,0 -6.333,2.836 -6.333,6.332 0,3.499 2.835,6.334 6.333,6.334 C -2.835,6.334 0,3.499 0,0"/></g><g id="g3898" transform="translate(328.3691,162.8115)" style="fill:#fff;fill-opacity:1"><path id="path3900" style="fill:#fff;fill-opacity:1;fill-rule:nonzero;stroke:none" d="m 0,0 c 0,-2.103 -1.706,-3.808 -3.809,-3.808 -2.103,0 -3.807,1.705 -3.807,3.808 0,2.104 1.704,3.809 3.807,3.809 C -1.706,3.809 0,2.104 0,0"/></g><g id="g3902" transform="translate(319.5498,144.3193)" style="fill:#fff;fill-opacity:1"><path id="path3904" style="fill:#fff;fill-opacity:1;fill-rule:nonzero;stroke:none" d="m 0,0 c 0,-2.103 -1.706,-3.808 -3.809,-3.808 -2.103,0 -3.807,1.705 -3.807,3.808 0,2.104 1.704,3.809 3.807,3.809 C -1.706,3.809 0,2.104 0,0"/></g><g id="g3906" transform="translate(270.0937,203.9995)" style="fill:#fff;fill-opacity:1"><path id="path3908" style="fill:#fff;fill-opacity:1;fill-rule:nonzero;stroke:none" d="m 0,0 c 0,-7.729 -6.267,-13.996 -14,-13.996 -7.732,0 -14.001,6.267 -14.001,13.996 0,7.734 6.269,14.003 14.001,14.003 C -6.267,14.003 0,7.734 0,0"/></g><g id="g3910" transform="translate(306.5967,189)" style="fill:#fff;fill-opacity:1"><path id="path3912" style="fill:#fff;fill-opacity:1;fill-rule:nonzero;stroke:none" d="m 0,0 c 0,-7.729 -6.268,-13.996 -14,-13.996 -7.732,0 -14.002,6.267 -14.002,13.996 0,7.734 6.27,14.003 14.002,14.003 C -6.268,14.003 0,7.734 0,0"/></g><g id="g3914" transform="translate(246.707,184.3882)" style="fill:#fff;fill-opacity:1"><path id="path3916" style="fill:#fff;fill-opacity:1;fill-rule:nonzero;stroke:none" d="m 0,0 c 0,-5.859 -4.752,-10.611 -10.614,-10.611 -5.862,0 -10.614,4.752 -10.614,10.611 0,5.863 4.752,10.615 10.614,10.615 C -4.752,10.615 0,5.863 0,0"/></g><g id="g3918" transform="translate(293.1729,226.0005)" style="fill:#fff;fill-opacity:1"><path id="path3920" style="fill:#fff;fill-opacity:1;fill-rule:nonzero;stroke:none" d="m 0,0 c 0,-5.859 -4.752,-10.611 -10.614,-10.611 -5.862,0 -10.614,4.752 -10.614,10.611 0,5.863 4.752,10.615 10.614,10.615 C -4.752,10.615 0,5.863 0,0"/></g><g id="g3922" transform="translate(332.7881,195.3877)" style="fill:#fff;fill-opacity:1"><path id="path3924" style="fill:#fff;fill-opacity:1;fill-rule:nonzero;stroke:none" d="m 0,0 c 0,-5.859 -4.752,-10.611 -10.614,-10.611 -5.862,0 -10.614,4.752 -10.614,10.611 0,5.863 4.752,10.615 10.614,10.615 C -4.752,10.615 0,5.863 0,0"/></g><g id="g3926" transform="translate(274.4238,183.7744)" style="fill:#fff;fill-opacity:1"><path id="path3928" style="fill:#fff;fill-opacity:1;fill-rule:nonzero;stroke:none" d="m 0,0 c 0,-3.496 -2.835,-6.332 -6.333,-6.332 -3.498,0 -6.334,2.836 -6.334,6.332 0,3.499 2.836,6.334 6.334,6.334 C -2.835,6.334 0,3.499 0,0"/></g><g id="g3930" transform="translate(284.0801,207.1611)" style="fill:#fff;fill-opacity:1"><path id="path3932" style="fill:#fff;fill-opacity:1;fill-rule:nonzero;stroke:none" d="m 0,0 c 0,-3.496 -2.835,-6.332 -6.333,-6.332 -3.498,0 -6.333,2.836 -6.333,6.332 0,3.499 2.835,6.334 6.333,6.334 C -2.835,6.334 0,3.499 0,0"/></g><g id="g3934" transform="translate(312.9336,207.5562)" style="fill:#fff;fill-opacity:1"><path id="path3936" style="fill:#fff;fill-opacity:1;fill-rule:nonzero;stroke:none" d="m 0,0 c 0,-3.496 -2.835,-6.332 -6.333,-6.332 -3.498,0 -6.334,2.836 -6.334,6.332 0,3.499 2.836,6.334 6.334,6.334 C -2.835,6.334 0,3.499 0,0"/></g><g id="g3938" transform="translate(312.3691,172.9443)" style="fill:#fff;fill-opacity:1"><path id="path3940" style="fill:#fff;fill-opacity:1;fill-rule:nonzero;stroke:none" d="m 0,0 c 0,-2.103 -1.706,-3.808 -3.809,-3.808 -2.103,0 -3.807,1.705 -3.807,3.808 0,2.104 1.704,3.809 3.807,3.809 C -1.706,3.809 0,2.104 0,0"/></g><g id="g3942" transform="translate(306.7861,223.8062)" style="fill:#fff;fill-opacity:1"><path id="path3944" style="fill:#fff;fill-opacity:1;fill-rule:nonzero;stroke:none" d="m 0,0 c 0,-2.103 -1.706,-3.808 -3.809,-3.808 -2.103,0 -3.808,1.705 -3.808,3.808 0,2.104 1.705,3.809 3.808,3.809 C -1.706,3.809 0,2.104 0,0"/></g><g id="g3946" transform="translate(271.0937,234.9478)" style="fill:#fff;fill-opacity:1"><path id="path3948" style="fill:#fff;fill-opacity:1;fill-rule:nonzero;stroke:none" d="m 0,0 c 0,-2.103 -1.706,-3.808 -3.809,-3.808 -2.103,0 -3.807,1.705 -3.807,3.808 0,2.104 1.704,3.809 3.807,3.809 C -1.706,3.809 0,2.104 0,0"/></g><g id="g3950" transform="translate(268.8672,222.7178)" style="fill:#fff;fill-opacity:1"><path id="path3952" style="fill:#fff;fill-opacity:1;fill-rule:nonzero;stroke:none" d="m 0,0 c 0,-2.103 -1.706,-3.808 -3.809,-3.808 -2.103,0 -3.807,1.705 -3.807,3.808 0,2.104 1.704,3.809 3.807,3.809 C -1.706,3.809 0,2.104 0,0"/></g></g></g></svg>